<svg width="160" height="20" viewBox="0 0 160 20" fill="none" xmlns="http://www.w3.org/2000/svg">
<path d="M1.45 19H3.9C4.65 19 4.9 18.725 4.9 17.975V13.425H7.55C11.275 13.425 13.625 11.2 13.625 7.35C13.625 3.5 11.225 1.25 7.525 1.25H1.45C0.725 1.25 0.45 1.525 0.45 2.275V17.975C0.45 18.725 0.725 19 1.45 19ZM7.225 9.425H4.9V5.25H7.225C8.475 5.25 9.175 6.1 9.175 7.35C9.175 8.625 8.45 9.425 7.225 9.425ZM20.0838 19H22.5338C23.2838 19 23.5338 18.725 23.5338 17.975V12.825H24.2588C25.2338 12.825 25.5338 13.2 26.0088 14.275L27.5838 17.925C27.9338 18.75 28.2838 19 29.4838 19H31.9338C32.7088 19 32.8338 18.5 32.5338 17.875L30.2338 13.075C30.0588 12.7 29.8088 12.25 29.5088 11.925C31.2338 11.05 32.2588 9.575 32.2588 7.1C32.2588 3.35 29.9088 1.25 26.3088 1.25H20.0838C19.3588 1.25 19.0838 1.525 19.0838 2.275V17.975C19.0838 18.725 19.3588 19 20.0838 19ZM26.0088 9.025H23.5338V5.25H26.0088C27.1338 5.25 27.8088 5.95 27.8088 7.1C27.8088 8.325 27.1338 9.025 26.0088 9.025ZM44.7326 19.375C49.2576 19.375 51.7826 16.75 51.7826 12.525V7.725C51.7826 3.5 49.2576 0.874999 44.7326 0.874999C40.2076 0.874999 37.6826 3.5 37.6826 7.725V12.525C37.6826 16.75 40.2076 19.375 44.7326 19.375ZM44.7326 15.375C43.0326 15.375 42.1326 14.45 42.1326 12.675V7.575C42.1326 5.8 43.0326 4.875 44.7326 4.875C46.4326 4.875 47.3326 5.8 47.3326 7.575V12.675C47.3326 14.45 46.4326 15.375 44.7326 15.375ZM56.2891 19H59.0141C60.2891 19 60.4641 18.9 60.8391 18.075L63.1141 13.3L65.4391 18.075C65.8641 18.925 66.0641 19 67.2641 19H70.0891C70.8141 19 70.9391 18.525 70.6141 17.975L65.8891 9.9L70.3641 2.225C70.6641 1.7 70.5641 1.25 69.8891 1.25H67.0391C66.0141 1.25 65.7391 1.325 65.3641 2.125L63.1641 6.575L60.9891 2.125C60.6141 1.325 60.3641 1.25 59.1891 1.25H56.4891C55.8391 1.25 55.7141 1.675 56.0141 2.225L60.4391 9.925L55.7891 17.975C55.4391 18.575 55.5891 19 56.2891 19ZM76.7408 19H79.2908C79.9408 19 80.2408 18.8 80.2408 18.05V2.2C80.2408 1.45 79.9658 1.25 79.3158 1.25H76.7408C76.0908 1.25 75.7908 1.45 75.7908 2.2V18.05C75.7908 18.8 76.0908 19 76.7408 19ZM87.5139 19H89.7889C90.5139 19 90.7389 18.75 90.7389 17.975V13.35C90.7389 11.675 90.7139 10.25 89.9639 7.2H90.1889C90.6389 8.825 91.1389 10.425 91.6639 11.575L92.9389 14.55C93.1639 15.1 93.4389 15.275 94.0389 15.275H95.5889C96.2389 15.275 96.4639 15.05 96.6889 14.55L97.9389 11.575C98.4639 10.375 99.0639 8.7 99.5139 7.2H99.7389C98.8639 10.15 98.9139 11.75 98.9139 13.325V17.975C98.9139 18.75 99.1639 19 99.9139 19H102.264C103.014 19 103.239 18.75 103.239 17.975V2.275C103.239 1.5 103.014 1.25 102.264 1.25H99.8639C99.1139 1.25 98.8889 1.35 98.5889 2.05L94.8389 10.45L91.1389 2.025C90.8639 1.375 90.5889 1.25 89.7889 1.25H87.5139C86.8139 1.25 86.5389 1.5 86.5389 2.275V17.975C86.5389 18.75 86.8139 19 87.5139 19ZM108.893 19H111.218C112.343 19 112.668 18.775 112.868 18.025L113.468 15.9H118.568L119.118 18.025C119.318 18.775 119.668 19 120.843 19H123.243C123.943 19 124.143 18.65 123.918 18L118.618 2.05C118.418 1.425 118.068 1.25 117.418 1.25H114.743C114.068 1.25 113.768 1.4 113.543 2.1L108.268 18C108.043 18.65 108.193 19 108.893 19ZM117.593 12.3H114.493L115.368 8.875C115.693 7.625 115.868 6.15 115.943 5.4H116.118C116.193 6.15 116.393 7.6 116.718 8.875L117.593 12.3ZM129.958 19H132.408C133.158 19 133.408 18.725 133.408 17.975V12.825H134.133C135.108 12.825 135.408 13.2 135.883 14.275L137.458 17.925C137.808 18.75 138.158 19 139.358 19H141.808C142.583 19 142.708 18.5 142.408 17.875L140.108 13.075C139.933 12.7 139.683 12.25 139.383 11.925C141.108 11.05 142.133 9.575 142.133 7.1C142.133 3.35 139.783 1.25 136.183 1.25H129.958C129.233 1.25 128.958 1.525 128.958 2.275V17.975C128.958 18.725 129.233 19 129.958 19ZM135.883 9.025H133.408V5.25H135.883C137.008 5.25 137.683 5.95 137.683 7.1C137.683 8.325 137.008 9.025 135.883 9.025ZM152.088 19H154.538C155.263 19 155.538 18.75 155.538 18V5.25H158.963C159.688 5.25 159.963 4.975 159.963 4.2V2.275C159.963 1.525 159.688 1.25 158.963 1.25H147.688C146.938 1.25 146.688 1.525 146.688 2.275V4.2C146.688 4.975 146.938 5.25 147.688 5.25H151.088V18C151.088 18.75 151.363 19 152.088 19Z" fill="#010101"/>
</svg>
